<?xml version="1.0" encoding="utf-8"?>
<!-- Generator: Adobe Illustrator 26.0.1, SVG Export Plug-In . SVG Version: 6.00 Build 0)  -->
<svg version="1.1" id="Layer_1" xmlns="http://www.w3.org/2000/svg" xmlns:xlink="http://www.w3.org/1999/xlink" x="0px" y="0px"
	 viewBox="0 0 58.1 58.1" style="enable-background:new 0 0 58.1 58.1;" xml:space="preserve">
<style type="text/css">
	.st0{fill:#39F400;}
	.st1{fill:#00A7FF;}
</style>
<g id="g7007">
	<circle id="circle4944" class="st0" cx="44.8" cy="8.8" r="2.1">
	</circle>
	<circle id="circle4974" class="st0" cx="44.8" cy="13.3" r="2.1">
	</circle>
	<circle id="circle4976" class="st0" cx="44.8" cy="17.8" r="2.1">
	</circle>
	<circle id="circle4978" class="st0" cx="40.3" cy="13.3" r="2.1">
	</circle>
	<circle id="circle4980" class="st0" cx="49.3" cy="13.3" r="2.1">
	</circle>
	<circle id="circle4982" class="st1" cx="8.8" cy="26.8" r="2.1">
	</circle>
	<circle id="circle4984" class="st1" cx="8.8" cy="31.3" r="2.1">
	</circle>
	<circle id="circle4986" class="st1" cx="8.8" cy="35.8" r="2.1">
	</circle>
	<circle id="circle4988" class="st1" cx="13.3" cy="35.8" r="2.1">
	</circle>
	<circle id="circle4990" class="st1" cx="13.3" cy="31.3" r="2.1">
	</circle>
	<circle id="circle4992" class="st1" cx="17.8" cy="26.8" r="2.1">
	</circle>
	<circle id="circle4994" class="st1" cx="13.3" cy="26.8" r="2.1">
	</circle>
	<circle id="circle4996" class="st1" cx="17.8" cy="31.3" r="2.1">
	</circle>
	<circle id="circle4998" class="st1" cx="17.8" cy="35.8" r="2.1">
	</circle>
	<circle id="circle5000" class="st1" cx="13.3" cy="40.3" r="2.1">
	</circle>
	<circle id="circle5002" class="st1" cx="13.3" cy="22.3" r="2.1">
	</circle>
	<circle id="circle5004" class="st1" cx="31.3" cy="26.8" r="2.1">
	</circle>
	<circle id="circle5006" class="st1" cx="31.3" cy="31.3" r="2.1">
	</circle>
	<circle id="circle5008" class="st1" cx="31.3" cy="35.8" r="2.1">
	</circle>
	<circle id="circle5010" class="st1" cx="35.8" cy="35.8" r="2.1">
	</circle>
	<circle id="circle5012" class="st1" cx="35.8" cy="31.3" r="2.1">
	</circle>
	<circle id="circle5014" class="st1" cx="40.3" cy="26.8" r="2.1">
	</circle>
	<circle id="circle5016" class="st1" cx="35.8" cy="26.8" r="2.1">
	</circle>
	<circle id="circle5018" class="st1" cx="40.3" cy="31.3" r="2.1">
	</circle>
	<circle id="circle5020" class="st1" cx="40.3" cy="35.8" r="2.1">
	</circle>
	<circle id="circle5022" class="st1" cx="35.8" cy="40.3" r="2.1">
	</circle>
	<circle id="circle5024" class="st1" cx="35.8" cy="22.3" r="2.1">
	</circle>
	<circle id="circle5048" class="st0" cx="53.8" cy="40.3" r="2.1">
	</circle>
	<circle id="circle5050" class="st0" cx="44.8" cy="44.8" r="2.1">
	</circle>
	<circle id="circle5052" class="st0" cx="40.3" cy="49.3" r="2.1">
	</circle>
	<circle id="circle5054" class="st0" cx="35.8" cy="49.3" r="2.1">
	</circle>
	<circle id="circle5056" class="st0" cx="31.3" cy="49.3" r="2.1">
	</circle>
	<circle id="circle5058" class="st0" cx="26.8" cy="49.3" r="2.1">
	</circle>
	<circle id="circle5060" class="st0" cx="22.3" cy="49.3" r="2.1">
	</circle>
	<circle id="circle5062" class="st0" cx="17.8" cy="49.3" r="2.1">
	</circle>
	<circle id="circle5064" class="st0" cx="13.3" cy="44.8" r="2.1">
	</circle>
	<circle id="circle5066" class="st0" cx="8.8" cy="44.8" r="2.1">
	</circle>
	<circle id="circle5068" class="st0" cx="4.3" cy="40.3" r="2.1">
	</circle>
	<circle id="circle5072" class="st0" cx="49.3" cy="44.8" r="2.1">
	</circle>
	<circle id="circle5156" class="st0" cx="22.3" cy="31.3" r="2.1">
	</circle>
	<circle id="circle5158" class="st0" cx="26.8" cy="31.3" r="2.1">
	</circle>
	<circle id="circle5166" class="st0" cx="44.8" cy="35.8" r="2.1">
	</circle>
	<circle id="circle5168" class="st0" cx="49.3" cy="35.8" r="2.1">
	</circle>
</g>
</svg>
