<?xml version="1.0" encoding="utf-8"?>
<!-- Generator: Adobe Illustrator 26.0.1, SVG Export Plug-In . SVG Version: 6.00 Build 0)  -->
<svg version="1.1" id="Layer_1" xmlns="http://www.w3.org/2000/svg" xmlns:xlink="http://www.w3.org/1999/xlink" x="0px" y="0px"
	 viewBox="0 0 58.1 58.1" style="enable-background:new 0 0 58.1 58.1;" xml:space="preserve">
<style type="text/css">
	.st0{fill:#00A7FF;}
	.st1{fill:#39F400;}
</style>
<g id="g6962">
	<circle id="circle4648" class="st0" cx="13.3" cy="31.3" r="2.1"/>
	<circle id="circle4650" class="st0" cx="13.3" cy="35.8" r="2.1"/>
	<circle id="circle4652" class="st0" cx="13.3" cy="40.3" r="2.1"/>
	<circle id="circle4654" class="st0" cx="17.8" cy="40.3" r="2.1"/>
	<circle id="circle4656" class="st0" cx="17.8" cy="35.8" r="2.1"/>
	<circle id="circle4658" class="st0" cx="22.3" cy="31.3" r="2.1"/>
	<circle id="circle4660" class="st0" cx="17.8" cy="31.3" r="2.1"/>
	<circle id="circle4662" class="st0" cx="22.3" cy="35.8" r="2.1"/>
	<circle id="circle4664" class="st0" cx="22.3" cy="40.3" r="2.1"/>
	<circle id="circle4666" class="st0" cx="17.8" cy="44.8" r="2.1"/>
	<circle id="circle4668" class="st0" cx="17.8" cy="26.8" r="2.1"/>
	<circle id="circle4680" class="st1" cx="40.3" cy="17.8" r="2.1"/>
	<circle id="circle4682" class="st1" cx="35.8" cy="17.8" r="2.1"/>
	<circle id="circle4688" class="st1" cx="40.3" cy="13.3" r="2.1"/>
	<circle id="circle4690" class="st1" cx="40.3" cy="22.3" r="2.1"/>
	<circle id="circle4708" class="st1" cx="44.8" cy="17.8" r="2.1"/>
	<circle id="circle4734" class="st1" cx="26.8" cy="17.8" r="2.1"/>
	<circle id="circle4736" class="st1" cx="22.3" cy="17.8" r="2.1"/>
	<circle id="circle4738" class="st1" cx="26.8" cy="13.3" r="2.1"/>
	<circle id="circle4740" class="st1" cx="26.8" cy="22.3" r="2.1"/>
	<circle id="circle4742" class="st1" cx="31.3" cy="17.8" r="2.1"/>
</g>
</svg>
