<?xml version="1.0" encoding="utf-8"?>
<!-- Generator: Adobe Illustrator 26.0.1, SVG Export Plug-In . SVG Version: 6.00 Build 0)  -->
<svg version="1.1" id="Layer_1" xmlns="http://www.w3.org/2000/svg" xmlns:xlink="http://www.w3.org/1999/xlink" x="0px" y="0px"
	 viewBox="0 0 58.1 58.1" style="enable-background:new 0 0 58.1 58.1;" xml:space="preserve">
<style type="text/css">
	.st0{fill:#00A7FF;}
	.st1{fill:#FFC100;}
</style>
<g>
	<g id="g8592" transform="translate(-53.57922,-0.8508134)">
		<circle id="circle5004-3" class="st0" cx="78.1" cy="32.2" r="2.1"/>
		<circle id="circle5006-6" class="st0" cx="78.1" cy="36.7" r="2.1"/>
		<circle id="circle5008-8" class="st0" cx="78.1" cy="41.2" r="2.1"/>
		<circle id="circle5010-2" class="st0" cx="82.6" cy="41.2" r="2.1"/>
		<circle id="circle5012-0" class="st0" cx="82.6" cy="36.7" r="2.1"/>
		<circle id="circle5014-2" class="st0" cx="87.1" cy="32.2" r="2.1"/>
		<circle id="circle5016-6" class="st0" cx="82.6" cy="32.2" r="2.1"/>
		<circle id="circle5018-3" class="st0" cx="87.1" cy="36.7" r="2.1"/>
		<circle id="circle5020-9" class="st0" cx="87.1" cy="41.2" r="2.1"/>
		<circle id="circle5022-3" class="st0" cx="82.6" cy="45.7" r="2.1"/>
		<circle id="circle5024-8" class="st0" cx="82.6" cy="27.7" r="2.1"/>
	</g>
	<circle id="circle8636" class="st1" cx="38.1" cy="31.3" r="2.1"/>
	<circle id="circle8726" class="st1" cx="38.1" cy="26.8" r="2.1"/>
	<circle id="circle8728" class="st1" cx="42.6" cy="22.3" r="2.1"/>
	<circle id="circle8732" class="st1" cx="42.6" cy="35.8" r="2.1"/>
	<circle id="circle8736" class="st1" cx="42.6" cy="26.8" r="2.1"/>
	<circle id="circle8738" class="st1" cx="47.1" cy="26.8" r="2.1"/>
	<circle id="circle8742" class="st1" cx="47.1" cy="17.8" r="2.1"/>
	<circle id="circle8744" class="st1" cx="51.6" cy="17.8" r="2.1"/>
	<circle id="circle8746" class="st1" cx="42.6" cy="17.8" r="2.1"/>
	<circle id="circle8748" class="st1" cx="38.1" cy="35.8" r="2.1"/>
	<circle id="circle8752" class="st1" cx="20.1" cy="31.3" r="2.1"/>
	<circle id="circle8754" class="st1" cx="20.1" cy="26.8" r="2.1"/>
	<circle id="circle8756" class="st1" cx="15.6" cy="22.3" r="2.1"/>
	<circle id="circle8758" class="st1" cx="15.6" cy="35.8" r="2.1"/>
	<circle id="circle8760" class="st1" cx="15.6" cy="26.8" r="2.1"/>
	<circle id="circle8762" class="st1" cx="11.1" cy="26.8" r="2.1"/>
	<circle id="circle8764" class="st1" cx="11.1" cy="17.8" r="2.1"/>
	<circle id="circle8766" class="st1" cx="6.6" cy="17.8" r="2.1"/>
	<circle id="circle8768" class="st1" cx="15.6" cy="17.8" r="2.1"/>
	<circle id="circle8770" class="st1" cx="20.1" cy="35.8" r="2.1"/>
</g>
</svg>
