<?xml version="1.0" encoding="UTF-8" standalone="no"?>
<svg
   xmlns:dc="http://purl.org/dc/elements/1.1/"
   xmlns:cc="http://creativecommons.org/ns#"
   xmlns:rdf="http://www.w3.org/1999/02/22-rdf-syntax-ns#"
   xmlns:svg="http://www.w3.org/2000/svg"
   xmlns="http://www.w3.org/2000/svg"
   xmlns:sodipodi="http://sodipodi.sourceforge.net/DTD/sodipodi-0.dtd"
   xmlns:inkscape="http://www.inkscape.org/namespaces/inkscape"
   viewBox="118.892 154.861 294.55 240.86756"
   version="1.1"
   id="svg823"
   sodipodi:docname="targeting.svg"
   width="294.54999"
   height="327.69699"
   inkscape:version="0.92.4 (5da689c313, 2019-01-14)">
  <metadata
     id="metadata829">
    <rdf:RDF>
      <cc:Work
         rdf:about="">
        <dc:format>image/svg+xml</dc:format>
        <dc:type
           rdf:resource="http://purl.org/dc/dcmitype/StillImage" />
      </cc:Work>
    </rdf:RDF>
  </metadata>
  <defs
     id="defs827" />
  <sodipodi:namedview
     pagecolor="#ffffff"
     bordercolor="#666666"
     borderopacity="1"
     objecttolerance="10"
     gridtolerance="10"
     guidetolerance="10"
     inkscape:pageopacity="0"
     inkscape:pageshadow="2"
     inkscape:window-width="1600"
     inkscape:window-height="847"
     id="namedview825"
     showgrid="false"
     inkscape:zoom="1.476018"
     inkscape:cx="72.952478"
     inkscape:cy="151.481"
     inkscape:window-x="-8"
     inkscape:window-y="116"
     inkscape:window-maximized="1"
     inkscape:current-layer="g821"
     showguides="false" />
  <g
     id="g821"
     transform="translate(5,5.0656261)">
    <path
       d="m 392.261,198.27573 c 3.6,8.511 6.395,17.445 8.291,26.707 1.895,9.262 2.89,18.851 2.89,28.673 0,9.822 -0.995,19.411 -2.89,28.673 -1.896,9.262 -4.691,18.196 -8.291,26.707 -3.599,8.511 -8.004,16.599 -13.117,24.168 -5.114,7.569 -10.936,14.62 -17.373,21.056 -6.436,6.437 -13.487,12.259 -21.056,17.373 -7.569,5.113 -15.657,9.517 -24.168,13.117 -8.511,3.6 -17.445,6.395 -26.707,8.291 -9.261,1.895 -18.851,2.89 -28.673,2.89 -9.822,0 -19.411,-0.995 -28.673,-2.89 -9.262,-1.896 -18.196,-4.691 -26.707,-8.291 -8.51,-3.599 -16.598,-8.004 -24.167,-13.117 -7.569,-5.114 -14.62,-10.936 -21.057,-17.373 -6.436,-6.437 -12.259,-13.487 -17.373,-21.056 -5.113,-7.569 -9.517,-15.657 -13.117,-24.168 -3.6,-8.511 -6.395,-17.445 -8.29,-26.707 -1.896,-9.262 -2.891,-18.851 -2.891,-28.673 0,-9.822 0.995,-19.411 2.891,-28.673 1.895,-9.262 4.69,-18.196 8.29,-26.707"
       style="fill:none;stroke:#3baafa;stroke-width:10px;stroke-linecap:round"
       id="path815"
       inkscape:connector-curvature="0" />
    <path
       d="m 370.366,370.24573 c -7.005,6.996 -14.677,13.322 -22.909,18.88 -8.234,5.556 -17.031,10.342 -26.286,14.255 m -120.368,0 c -9.241,-3.912 -18.022,-8.699 -26.241,-14.255 -8.219,-5.558 -15.872,-11.884 -22.856,-18.88"
       style="fill:none;stroke:#3baafa;stroke-width:10px;stroke-linecap:round"
       id="path817"
       inkscape:connector-curvature="0" />
    <path
       d="m 292.31699,410.32574 -31.149,18.752 -31.151,-18.752"
       style="fill:none;stroke:#3baafa;stroke-width:10px;stroke-linecap:round;stroke-linejoin:round"
       id="path819"
       inkscape:connector-curvature="0" />
  </g>
</svg>
