{
    "asset" : {
        "generator" : "Khronos glTF Blender I/O v1.7.33",
        "version" : "2.0"
    },
    "scene" : 0,
    "scenes" : [
        {
            "name" : "Scene",
            "nodes" : [
                0
            ]
        }
    ],
    "nodes" : [
        {
            "mesh" : 0,
            "name" : "Circle.001",
            "scale" : [
                10,
                10,
                10
            ]
        }
    ],
    "meshes" : [
        {
            "name" : "Circle.001",
            "primitives" : [
                {
                    "attributes" : {
                        "POSITION" : 0,
                        "NORMAL" : 1,
                        "TEXCOORD_0" : 2
                    },
                    "indices" : 3
                }
            ]
        }
    ],
    "accessors" : [
        {
            "bufferView" : 0,
            "componentType" : 5126,
            "count" : 412,
            "max" : [
                1.100000023841858,
                1,
                1.100000023841858
            ],
            "min" : [
                -1.100000023841858,
                0,
                -1.100000023841858
            ],
            "type" : "VEC3"
        },
        {
            "bufferView" : 1,
            "componentType" : 5126,
            "count" : 412,
            "type" : "VEC3"
        },
        {
            "bufferView" : 2,
            "componentType" : 5126,
            "count" : 412,
            "type" : "VEC2"
        },
        {
            "bufferView" : 3,
            "componentType" : 5123,
            "count" : 768,
            "type" : "SCALAR"
        }
    ],
    "bufferViews" : [
        {
            "buffer" : 0,
            "byteLength" : 4944,
            "byteOffset" : 0
        },
        {
            "buffer" : 0,
            "byteLength" : 4944,
            "byteOffset" : 4944
        },
        {
            "buffer" : 0,
            "byteLength" : 3296,
            "byteOffset" : 9888
        },
        {
            "buffer" : 0,
            "byteLength" : 1536,
            "byteOffset" : 13184
        }
    ],
    "buffers" : [
        {
            "byteLength" : 14720,
            "uri" : "data:application/octet-stream;base64,"
        }
    ]
}
