{
    "asset" : {
        "generator" : "Khronos glTF Blender I/O v1.7.33",
        "version" : "2.0"
    },
    "extensionsUsed" : [
        "KHR_texture_transform"
    ],
    "extensionsRequired" : [
        "KHR_texture_transform"
    ],
    "scene" : 0,
    "scenes" : [
        {
            "name" : "Scene",
            "nodes" : [
                4
            ]
        }
    ],
    "nodes" : [
        {
            "mesh" : 0,
            "name" : "Glass",
            "rotation" : [
                0.7071068286895752,
                0,
                0,
                0.7071067094802856
            ],
            "scale" : [
                0.12250000238418579,
                0.12250000238418579,
                1
            ]
        },
        {
            "mesh" : 1,
            "name" : "Hours",
            "rotation" : [
                0.648273229598999,
                0.28238603472709656,
                -0.28238609433174133,
                0.648273229598999
            ],
            "translation" : [
                0,
                0.4443323314189911,
                0
            ]
        },
        {
            "mesh" : 2,
            "name" : "Minutes",
            "rotation" : [
                0.7071068286895752,
                0,
                0,
                0.7071067094802856
            ],
            "translation" : [
                0,
                0.5809463858604431,
                0
            ]
        },
        {
            "mesh" : 3,
            "name" : "Seconds",
            "translation" : [
                0,
                0.817695140838623,
                0
            ]
        },
        {
            "children" : [
                0,
                1,
                2,
                3
            ],
            "mesh" : 4,
            "name" : "Clock",
            "rotation" : [
                0.7071068286895752,
                0,
                0,
                0.7071067094802856
            ],
            "scale" : [
                0.009999999776482582,
                0.009999999776482582,
                0.009999999776482582
            ]
        }
    ],
    "materials" : [
        {
            "alphaCutoff" : 0.5,
            "alphaMode" : "MASK",
            "doubleSided" : true,
            "name" : "Glass",
            "pbrMetallicRoughness" : {
                "baseColorFactor" : [
                    1,
                    1,
                    1,
                    0.25
                ],
                "baseColorTexture" : {
                    "index" : 0
                },
                "metallicFactor" : 0,
                "roughnessFactor" : 0.5
            }
        },
        {
            "doubleSided" : true,
            "name" : "Mat",
            "normalTexture" : {
                "index" : 1
            },
            "pbrMetallicRoughness" : {
                "baseColorTexture" : {
                    "extensions" : {
                        "KHR_texture_transform" : {
                            "offset" : [
                                0,
                                -1
                            ]
                        }
                    },
                    "index" : 2
                },
                "metallicFactor" : 0,
                "roughnessFactor" : 0.4343145787715912
            }
        }
    ],
    "meshes" : [
        {
            "name" : "Mesh.004",
            "primitives" : [
                {
                    "attributes" : {
                        "POSITION" : 0,
                        "NORMAL" : 1,
                        "TEXCOORD_0" : 2
                    },
                    "indices" : 3,
                    "material" : 0
                }
            ]
        },
        {
            "name" : "Mesh.002",
            "primitives" : [
                {
                    "attributes" : {
                        "POSITION" : 4,
                        "NORMAL" : 5,
                        "TEXCOORD_0" : 6
                    },
                    "indices" : 7,
                    "material" : 1
                }
            ]
        },
        {
            "name" : "Mesh.003",
            "primitives" : [
                {
                    "attributes" : {
                        "POSITION" : 8,
                        "NORMAL" : 9,
                        "TEXCOORD_0" : 10
                    },
                    "indices" : 7,
                    "material" : 1
                }
            ]
        },
        {
            "name" : "Mesh.001",
            "primitives" : [
                {
                    "attributes" : {
                        "POSITION" : 11,
                        "NORMAL" : 12,
                        "TEXCOORD_0" : 13
                    },
                    "indices" : 14,
                    "material" : 1
                }
            ]
        },
        {
            "name" : "Mesh",
            "primitives" : [
                {
                    "attributes" : {
                        "POSITION" : 15,
                        "NORMAL" : 16,
                        "TEXCOORD_0" : 17
                    },
                    "indices" : 18,
                    "material" : 1
                }
            ]
        }
    ],
    "textures" : [
        {
            "sampler" : 0,
            "source" : 0
        },
        {
            "sampler" : 0,
            "source" : 1
        },
        {
            "sampler" : 0,
            "source" : 2
        }
    ],
    "images" : [
        {
            "bufferView" : 4,
            "mimeType" : "image/jpeg",
            "name" : "Glass_Opacity"
        },
        {
            "bufferView" : 9,
            "mimeType" : "image/jpeg",
            "name" : "Mat_Normal_DirectX"
        },
        {
            "bufferView" : 10,
            "mimeType" : "image/jpeg",
            "name" : "Mat_Base_Color"
        }
    ],
    "accessors" : [
        {
            "bufferView" : 0,
            "componentType" : 5126,
            "count" : 33,
            "max" : [
                136.82810974121094,
                136.82810974121094,
                -1.407401204109192
            ],
            "min" : [
                -136.82810974121094,
                -136.82810974121094,
                -1.407401204109192
            ],
            "type" : "VEC3"
        },
        {
            "bufferView" : 1,
            "componentType" : 5126,
            "count" : 33,
            "type" : "VEC3"
        },
        {
            "bufferView" : 2,
            "componentType" : 5126,
            "count" : 33,
            "type" : "VEC2"
        },
        {
            "bufferView" : 3,
            "componentType" : 5123,
            "count" : 96,
            "type" : "SCALAR"
        },
        {
            "bufferView" : 5,
            "componentType" : 5126,
            "count" : 102,
            "max" : [
                0.3828889727592468,
                10.830342292785645,
                0.04243377968668938
            ],
            "min" : [
                -0.3828889727592468,
                -2.682922124862671,
                -0.04243377968668938
            ],
            "type" : "VEC3"
        },
        {
            "bufferView" : 6,
            "componentType" : 5126,
            "count" : 102,
            "type" : "VEC3"
        },
        {
            "bufferView" : 7,
            "componentType" : 5126,
            "count" : 102,
            "type" : "VEC2"
        },
        {
            "bufferView" : 8,
            "componentType" : 5123,
            "count" : 312,
            "type" : "SCALAR"
        },
        {
            "bufferView" : 11,
            "componentType" : 5126,
            "count" : 102,
            "max" : [
                0.3828889727592468,
                13.68403148651123,
                0.04243377968668938
            ],
            "min" : [
                -0.3828889727592468,
                -2.682922124862671,
                -0.04243377968668938
            ],
            "type" : "VEC3"
        },
        {
            "bufferView" : 12,
            "componentType" : 5126,
            "count" : 102,
            "type" : "VEC3"
        },
        {
            "bufferView" : 13,
            "componentType" : 5126,
            "count" : 102,
            "type" : "VEC2"
        },
        {
            "bufferView" : 14,
            "componentType" : 5126,
            "count" : 83,
            "max" : [
                2.762312173843384,
                0.03818577900528908,
                2.5978777408599854
            ],
            "min" : [
                -0.5843449831008911,
                -0.04486729949712753,
                -13.334773063659668
            ],
            "type" : "VEC3"
        },
        {
            "bufferView" : 15,
            "componentType" : 5126,
            "count" : 83,
            "type" : "VEC3"
        },
        {
            "bufferView" : 16,
            "componentType" : 5126,
            "count" : 83,
            "type" : "VEC2"
        },
        {
            "bufferView" : 17,
            "componentType" : 5123,
            "count" : 180,
            "type" : "SCALAR"
        },
        {
            "bufferView" : 18,
            "componentType" : 5126,
            "count" : 375,
            "max" : [
                17.5,
                1.5932788848876953,
                17.5
            ],
            "min" : [
                -17.5,
                -1.5932788848876953,
                -17.5
            ],
            "type" : "VEC3"
        },
        {
            "bufferView" : 19,
            "componentType" : 5126,
            "count" : 375,
            "type" : "VEC3"
        },
        {
            "bufferView" : 20,
            "componentType" : 5126,
            "count" : 375,
            "type" : "VEC2"
        },
        {
            "bufferView" : 21,
            "componentType" : 5123,
            "count" : 1020,
            "type" : "SCALAR"
        }
    ],
    "bufferViews" : [
        {
            "buffer" : 0,
            "byteLength" : 396,
            "byteOffset" : 0
        },
        {
            "buffer" : 0,
            "byteLength" : 396,
            "byteOffset" : 396
        },
        {
            "buffer" : 0,
            "byteLength" : 264,
            "byteOffset" : 792
        },
        {
            "buffer" : 0,
            "byteLength" : 192,
            "byteOffset" : 1056
        },
        {
            "buffer" : 0,
            "byteLength" : 49498,
            "byteOffset" : 1248
        },
        {
            "buffer" : 0,
            "byteLength" : 1224,
            "byteOffset" : 50748
        },
        {
            "buffer" : 0,
            "byteLength" : 1224,
            "byteOffset" : 51972
        },
        {
            "buffer" : 0,
            "byteLength" : 816,
            "byteOffset" : 53196
        },
        {
            "buffer" : 0,
            "byteLength" : 624,
            "byteOffset" : 54012
        },
        {
            "buffer" : 0,
            "byteLength" : 72691,
            "byteOffset" : 54636
        },
        {
            "buffer" : 0,
            "byteLength" : 136589,
            "byteOffset" : 127328
        },
        {
            "buffer" : 0,
            "byteLength" : 1224,
            "byteOffset" : 263920
        },
        {
            "buffer" : 0,
            "byteLength" : 1224,
            "byteOffset" : 265144
        },
        {
            "buffer" : 0,
            "byteLength" : 816,
            "byteOffset" : 266368
        },
        {
            "buffer" : 0,
            "byteLength" : 996,
            "byteOffset" : 267184
        },
        {
            "buffer" : 0,
            "byteLength" : 996,
            "byteOffset" : 268180
        },
        {
            "buffer" : 0,
            "byteLength" : 664,
            "byteOffset" : 269176
        },
        {
            "buffer" : 0,
            "byteLength" : 360,
            "byteOffset" : 269840
        },
        {
            "buffer" : 0,
            "byteLength" : 4500,
            "byteOffset" : 270200
        },
        {
            "buffer" : 0,
            "byteLength" : 4500,
            "byteOffset" : 274700
        },
        {
            "buffer" : 0,
            "byteLength" : 3000,
            "byteOffset" : 279200
        },
        {
            "buffer" : 0,
            "byteLength" : 2040,
            "byteOffset" : 282200
        }
    ],
    "samplers" : [
        {
            "magFilter" : 9729,
            "minFilter" : 9987
        }
    ],
    "buffers" : [
        {
            "byteLength" : 284240,
            "uri" : "data:application/octet-stream;base64,"
        }
    ]
}
